<svg xmlns="http://www.w3.org/2000/svg" viewBox="0 0 240 360" role="img" aria-label="PLN Logo">
  <rect width="240" height="360" fill="#f4ea2a" />

  <path
    d="M35 190 C55 177, 75 177, 95 190 C115 203, 135 203, 155 190 C175 177, 195 177, 215 190 L215 212 C195 199, 175 199, 155 212 C135 225, 115 225, 95 212 C75 199, 55 199, 35 212 Z"
    fill="#1ea0e6"
  />
  <path
    d="M35 146 C55 133, 75 133, 95 146 C115 159, 135 159, 155 146 C175 133, 195 133, 215 146 L215 168 C195 155, 175 155, 155 168 C135 181, 115 181, 95 168 C75 155, 55 155, 35 168 Z"
    fill="#1ea0e6"
  />
  <path
    d="M35 102 C55 89, 75 89, 95 102 C115 115, 135 115, 155 102 C175 89, 195 89, 215 102 L215 124 C195 111, 175 111, 155 124 C135 137, 115 137, 95 124 C75 111, 55 111, 35 124 Z"
    fill="#1ea0e6"
  />

  <path
    d="M105 48 H168 L120 146 L205 116 L132 330 L154 186 L67 216 Z"
    fill="#e30613"
  />
</svg>
